M48
;DRILL file {KiCad 4.0.7} date 10/31/20 00:15:03
;FORMAT={-:-/ absolute / metric / decimal}
FMAT,2
METRIC,TZ
T1C0.800
T2C0.900
T3C1.000
T4C1.100
T5C1.520
%
G90
G05
M71
T1
X57.88Y-116.4
X57.98Y-50.8
X65.5Y-116.4
X65.6Y-50.8
X68.5Y-51.78
X68.5Y-59.4
X69.2Y-119.58
X69.2Y-127.2
X72.4Y-51.88
X72.4Y-59.5
X72.6Y-119.58
X72.6Y-127.2
X73.4Y-62.4
X73.4Y-65.7
X75.5Y-130.
X75.6Y-133.1
X78.6Y-115.1
X79.2Y-47.7
X79.2Y-50.2
X80.2Y-54.5
X80.2Y-59.5
X81.02Y-62.4
X81.02Y-65.7
X81.1Y-115.1
X82.5Y-122.1
X82.5Y-127.1
X83.12Y-130.
X83.22Y-133.1
X84.98Y-68.
X85.3Y-47.2
X85.3Y-52.2
X85.38Y-54.7
X85.38Y-62.32
X85.7Y-113.4
X85.7Y-118.4
X85.88Y-120.7
X85.88Y-128.32
X86.08Y-134.1
X86.4Y-64.9
X87.25Y-78.38
X87.25Y-86.
X87.4Y-131.
X87.92Y-54.7
X87.92Y-62.32
X88.28Y-48.7
X88.38Y-45.4
X88.42Y-120.7
X88.42Y-128.32
X88.98Y-111.6
X88.98Y-114.8
X89.1Y-51.9
X89.9Y-117.9
X90.46Y-54.7
X90.46Y-62.32
X90.75Y-78.25
X90.75Y-85.87
X90.96Y-120.7
X90.96Y-128.32
X91.4Y-64.9
X92.4Y-131.
X92.6Y-68.
X93.Y-54.7
X93.Y-62.32
X93.5Y-120.7
X93.5Y-128.32
X93.7Y-134.1
X94.1Y-51.9
X94.9Y-117.9
X95.9Y-48.7
X96.Y-45.4
X96.6Y-62.4
X96.6Y-67.4
X96.6Y-111.6
X96.6Y-114.8
X96.6Y-128.6
X96.6Y-133.6
X98.08Y-58.8
X98.28Y-55.3
X98.58Y-44.5
X98.8Y-47.4
X98.8Y-52.4
X98.98Y-107.7
X99.18Y-121.2
X99.38Y-118.2
X99.5Y-110.4
X99.5Y-115.4
X102.1Y-47.4
X102.1Y-52.4
X102.3Y-130.4
X102.3Y-132.9
X102.7Y-110.4
X102.7Y-115.4
X102.8Y-63.6
X102.8Y-66.1
X105.5Y-47.4
X105.5Y-52.4
X105.7Y-58.8
X105.8Y-110.4
X105.8Y-115.4
X105.9Y-55.3
X106.2Y-44.5
X106.6Y-107.7
X106.8Y-121.2
X107.Y-118.2
X108.38Y-58.6
X108.48Y-55.1
X109.Y-110.4
X109.Y-115.4
X109.1Y-47.4
X109.1Y-52.4
X109.18Y-121.3
X109.28Y-118.
X110.Y-90.13
X110.Y-97.75
X112.Y-110.4
X112.Y-115.4
X112.5Y-47.4
X112.5Y-52.4
X113.25Y-90.13
X113.25Y-97.75
X116.Y-58.6
X116.1Y-55.1
X116.75Y-90.
X116.75Y-97.62
X116.8Y-121.3
X116.9Y-118.
X117.25Y-77.25
X117.25Y-84.87
X122.5Y-92.5
X122.5Y-95.
X123.25Y-80.5
X123.25Y-83.
X124.3Y-45.9
X124.3Y-53.52
X126.38Y-89.5
X127.68Y-96.1
X127.9Y-92.8
X128.38Y-86.25
X129.5Y-100.6
X129.5Y-103.1
X130.05Y-74.5
X130.75Y-80.25
X133.25Y-80.25
X133.75Y-71.
X134.Y-89.5
X135.3Y-96.1
X135.52Y-92.8
X136.Y-86.25
X138.8Y-96.62
X138.8Y-99.16
X138.8Y-101.7
X139.Y-86.25
X139.Y-93.87
X139.25Y-78.17
X139.25Y-80.71
X139.25Y-83.25
X141.37Y-71.
X142.75Y-74.5
T2
X121.4Y-41.5
X123.94Y-41.5
T3
X69.3Y-48.9
X69.4Y-116.3
X70.5Y-62.86
X70.5Y-65.4
X71.84Y-48.9
X71.94Y-116.3
X72.6Y-130.16
X72.6Y-132.7
X80.25Y-79.25
X80.25Y-84.25
X80.5Y-91.75
X80.5Y-96.75
X96.17Y-92.5
X98.71Y-92.5
X100.5Y-82.75
X101.25Y-92.5
X103.04Y-82.75
X105.58Y-82.75
X118.12Y-66.2
X120.66Y-66.2
X123.2Y-66.2
X131.Y-69.75
X149.Y-72.75
T4
X68.5Y-76.75
X68.5Y-84.37
X68.5Y-90.75
X68.5Y-98.37
X72.25Y-76.75
X72.25Y-84.37
X72.5Y-90.75
X72.5Y-98.37
X83.63Y-101.5
X87.13Y-73.
X87.5Y-90.88
X87.5Y-98.5
X91.25Y-101.5
X94.75Y-73.
X114.Y-77.13
X114.Y-84.75
X120.9Y-45.68
X120.9Y-53.3
X129.4Y-44.5
X129.4Y-49.58
X129.4Y-54.66
X129.4Y-62.28
X137.Y-44.5
X137.Y-49.58
X137.Y-54.66
X137.Y-62.28
T5
X60.5Y-83.25
X60.5Y-88.33
X60.5Y-93.41
X60.7Y-121.2
X60.7Y-126.28
X61.Y-57.2
X61.Y-62.28
X143.Y-57.17
X143.Y-62.25
X143.25Y-45.17
X143.25Y-50.25
T0
M30
