G04 #@! TF.FileFunction,Copper,L2,Bot,Signal*
%FSLAX46Y46*%
G04 Gerber Fmt 4.6, Leading zero omitted, Abs format (unit mm)*
G04 Created by KiCad (PCBNEW 4.0.7) date 11/16/20 19:29:27*
%MOMM*%
%LPD*%
G01*
G04 APERTURE LIST*
%ADD10C,0.100000*%
%ADD11R,2.000000X2.000000*%
%ADD12C,2.000000*%
%ADD13C,1.600000*%
%ADD14R,1.600000X1.600000*%
%ADD15R,2.200000X2.200000*%
%ADD16O,2.200000X2.200000*%
%ADD17R,1.800000X1.800000*%
%ADD18C,1.800000*%
%ADD19R,3.000000X3.000000*%
%ADD20C,3.000000*%
%ADD21R,1.700000X1.700000*%
%ADD22O,1.700000X1.700000*%
%ADD23O,1.800000X1.800000*%
%ADD24O,1.600000X1.600000*%
%ADD25C,1.520000*%
%ADD26R,1.520000X1.520000*%
%ADD27C,1.500000*%
%ADD28C,1.000000*%
G04 APERTURE END LIST*
D10*
D11*
X80250000Y-79250000D03*
D12*
X80250000Y-84250000D03*
D11*
X80500000Y-91750000D03*
D12*
X80500000Y-96750000D03*
D13*
X80200000Y-59500000D03*
X80200000Y-54500000D03*
D14*
X123250000Y-80500000D03*
D13*
X123250000Y-83000000D03*
D14*
X122500000Y-95000000D03*
D13*
X122500000Y-92500000D03*
D14*
X102800000Y-63600000D03*
D13*
X102800000Y-66100000D03*
X96600000Y-62400000D03*
X96600000Y-67400000D03*
D14*
X129500000Y-100600000D03*
D13*
X129500000Y-103100000D03*
X85300000Y-47200000D03*
X85300000Y-52200000D03*
D14*
X79200000Y-47700000D03*
D13*
X79200000Y-50200000D03*
D14*
X130750000Y-80250000D03*
D13*
X133250000Y-80250000D03*
X107450000Y-45550000D03*
X107450000Y-50550000D03*
X103200000Y-45650000D03*
X103200000Y-50650000D03*
X98700000Y-45650000D03*
X98700000Y-50650000D03*
X116250000Y-45650000D03*
X116250000Y-50650000D03*
X111950000Y-45550000D03*
X111950000Y-50550000D03*
D15*
X91250000Y-101500000D03*
D16*
X83630000Y-101500000D03*
D15*
X68500000Y-76750000D03*
D16*
X68500000Y-84370000D03*
D15*
X68500000Y-90750000D03*
D16*
X68500000Y-98370000D03*
D15*
X94750000Y-73000000D03*
D16*
X87130000Y-73000000D03*
D15*
X72250000Y-76750000D03*
D16*
X72250000Y-84370000D03*
D15*
X72500000Y-90750000D03*
D16*
X72500000Y-98370000D03*
D15*
X114000000Y-84750000D03*
D16*
X114000000Y-77130000D03*
D15*
X87500000Y-98500000D03*
D16*
X87500000Y-90880000D03*
D15*
X120900000Y-53300000D03*
D16*
X120900000Y-45680000D03*
D17*
X121400000Y-41500000D03*
D18*
X123940000Y-41500000D03*
D19*
X60500000Y-83250000D03*
D20*
X60500000Y-88330000D03*
X60500000Y-93410000D03*
D19*
X61000000Y-57200000D03*
D20*
X61000000Y-62280000D03*
D21*
X70500000Y-65400000D03*
D22*
X70500000Y-62860000D03*
D21*
X69300000Y-48900000D03*
D22*
X71840000Y-48900000D03*
D17*
X123200000Y-66200000D03*
D23*
X120660000Y-66200000D03*
X118120000Y-66200000D03*
D13*
X65600000Y-50800000D03*
D24*
X57980000Y-50800000D03*
D13*
X72400000Y-59500000D03*
D24*
X72400000Y-51880000D03*
D13*
X87250000Y-86000000D03*
D24*
X87250000Y-78380000D03*
D13*
X110000000Y-97750000D03*
D24*
X110000000Y-90130000D03*
D13*
X90750000Y-78250000D03*
D24*
X90750000Y-85870000D03*
D13*
X113250000Y-97750000D03*
D24*
X113250000Y-90130000D03*
D13*
X68500000Y-59400000D03*
D24*
X68500000Y-51780000D03*
D13*
X117250000Y-77250000D03*
D24*
X117250000Y-84870000D03*
D13*
X116750000Y-90000000D03*
D24*
X116750000Y-97620000D03*
D13*
X73400000Y-62400000D03*
D24*
X81020000Y-62400000D03*
D13*
X73400000Y-65700000D03*
D24*
X81020000Y-65700000D03*
D13*
X134000000Y-89500000D03*
D24*
X126380000Y-89500000D03*
D13*
X135300000Y-96100000D03*
D24*
X127680000Y-96100000D03*
D13*
X92600000Y-68000000D03*
D24*
X84980000Y-68000000D03*
D13*
X136000000Y-86250000D03*
D24*
X128380000Y-86250000D03*
D13*
X127900000Y-92800000D03*
D24*
X135520000Y-92800000D03*
D13*
X105700000Y-58800000D03*
D24*
X98080000Y-58800000D03*
D13*
X139000000Y-86250000D03*
D24*
X139000000Y-93870000D03*
D13*
X105900000Y-55300000D03*
D24*
X98280000Y-55300000D03*
D13*
X133750000Y-71000000D03*
D24*
X141370000Y-71000000D03*
D13*
X116000000Y-58600000D03*
D24*
X108380000Y-58600000D03*
D13*
X116100000Y-55100000D03*
D24*
X108480000Y-55100000D03*
D13*
X124300000Y-45900000D03*
D24*
X124300000Y-53520000D03*
D13*
X96000000Y-45400000D03*
D24*
X88380000Y-45400000D03*
D13*
X95900000Y-48700000D03*
D24*
X88280000Y-48700000D03*
D18*
X129400000Y-54660000D03*
X129400000Y-44500000D03*
X129400000Y-49580000D03*
X137000000Y-49580000D03*
X137000000Y-54660000D03*
X137000000Y-44500000D03*
X129400000Y-62280000D03*
X137000000Y-62280000D03*
D17*
X100500000Y-82750000D03*
D23*
X103040000Y-82750000D03*
X105580000Y-82750000D03*
D17*
X101250000Y-92500000D03*
D23*
X98710000Y-92500000D03*
X96170000Y-92500000D03*
D14*
X93000000Y-54700000D03*
D24*
X85380000Y-62320000D03*
X90460000Y-54700000D03*
X87920000Y-62320000D03*
X87920000Y-54700000D03*
X90460000Y-62320000D03*
X85380000Y-54700000D03*
X93000000Y-62320000D03*
D25*
X138800000Y-99160000D03*
X138800000Y-96620000D03*
D26*
X138800000Y-101700000D03*
D25*
X139250000Y-80710000D03*
X139250000Y-78170000D03*
D26*
X139250000Y-83250000D03*
D13*
X142750000Y-74500000D03*
D24*
X130050000Y-74500000D03*
D13*
X82500000Y-127100000D03*
X82500000Y-122100000D03*
D14*
X102300000Y-130400000D03*
D13*
X102300000Y-132900000D03*
X96600000Y-128600000D03*
X96600000Y-133600000D03*
X85700000Y-113400000D03*
X85700000Y-118400000D03*
D14*
X78600000Y-115100000D03*
D13*
X81100000Y-115100000D03*
X99650000Y-110100000D03*
X99650000Y-115100000D03*
X103800000Y-110050000D03*
X103800000Y-115050000D03*
X108250000Y-110050000D03*
X108250000Y-115050000D03*
X112650000Y-110050000D03*
X112650000Y-115050000D03*
X117250000Y-109950000D03*
X117250000Y-114950000D03*
D19*
X60700000Y-121200000D03*
D20*
X60700000Y-126280000D03*
D19*
X143000000Y-62250000D03*
D20*
X143000000Y-57170000D03*
D19*
X143250000Y-50250000D03*
D20*
X143250000Y-45170000D03*
D21*
X72600000Y-132700000D03*
D22*
X72600000Y-130160000D03*
D21*
X69400000Y-116300000D03*
D22*
X71940000Y-116300000D03*
D13*
X65500000Y-116400000D03*
D24*
X57880000Y-116400000D03*
D13*
X72600000Y-127200000D03*
D24*
X72600000Y-119580000D03*
D13*
X69200000Y-127200000D03*
D24*
X69200000Y-119580000D03*
D13*
X75500000Y-130000000D03*
D24*
X83120000Y-130000000D03*
D13*
X75600000Y-133100000D03*
D24*
X83220000Y-133100000D03*
D13*
X93700000Y-134100000D03*
D24*
X86080000Y-134100000D03*
D13*
X106850000Y-122750000D03*
D24*
X99230000Y-122750000D03*
D13*
X106850000Y-119650000D03*
D24*
X99230000Y-119650000D03*
D13*
X116700000Y-122850000D03*
D24*
X109080000Y-122850000D03*
D13*
X117000000Y-119700000D03*
D24*
X109380000Y-119700000D03*
D13*
X96600000Y-111600000D03*
D24*
X88980000Y-111600000D03*
D13*
X96600000Y-114800000D03*
D24*
X88980000Y-114800000D03*
D14*
X93500000Y-120700000D03*
D24*
X85880000Y-128320000D03*
X90960000Y-120700000D03*
X88420000Y-128320000D03*
X88420000Y-120700000D03*
X90960000Y-128320000D03*
X85880000Y-120700000D03*
X93500000Y-128320000D03*
D13*
X105950000Y-41250000D03*
D24*
X98330000Y-41250000D03*
D13*
X106250000Y-105850000D03*
D24*
X98630000Y-105850000D03*
D13*
X86400000Y-64900000D03*
X91400000Y-64900000D03*
X87400000Y-131000000D03*
X92400000Y-131000000D03*
X89100000Y-51900000D03*
X94100000Y-51900000D03*
X89900000Y-117900000D03*
X94900000Y-117900000D03*
D27*
X149000000Y-72750000D03*
X131000000Y-69750000D03*
D28*
X114000000Y-84750000D02*
X114000000Y-85750000D01*
X114000000Y-85750000D02*
X115500000Y-87250000D01*
X128500000Y-82500000D02*
X130750000Y-80250000D01*
X127250000Y-82500000D02*
X128500000Y-82500000D01*
X122500000Y-87250000D02*
X127250000Y-82500000D01*
X115500000Y-87250000D02*
X122500000Y-87250000D01*
X105580000Y-82750000D02*
X112500000Y-83250000D01*
X112500000Y-83250000D02*
X114000000Y-84750000D01*
X80250000Y-79250000D02*
X81750000Y-79250000D01*
X105580000Y-85170000D02*
X105580000Y-82750000D01*
X103000000Y-87750000D02*
X105580000Y-85170000D01*
X85250000Y-87750000D02*
X103000000Y-87750000D01*
X83250000Y-85750000D02*
X85250000Y-87750000D01*
X83250000Y-80750000D02*
X83250000Y-85750000D01*
X81750000Y-79250000D02*
X83250000Y-80750000D01*
X130050000Y-74500000D02*
X130000000Y-74500000D01*
X130750000Y-75250000D02*
X130750000Y-80250000D01*
X130000000Y-74500000D02*
X130750000Y-75250000D01*
X130500000Y-80250000D02*
X130750000Y-80250000D01*
X80250000Y-79250000D02*
X80250000Y-78500000D01*
X72250000Y-76750000D02*
X77750000Y-76750000D01*
X77750000Y-76750000D02*
X80250000Y-79250000D01*
X72250000Y-76750000D02*
X68500000Y-76750000D01*
X87500000Y-90880000D02*
X87870000Y-90880000D01*
X87870000Y-90880000D02*
X88750000Y-90000000D01*
X98710000Y-91210000D02*
X98710000Y-92500000D01*
X97500000Y-90000000D02*
X98710000Y-91210000D01*
X88750000Y-90000000D02*
X97500000Y-90000000D01*
X80500000Y-96750000D02*
X81630000Y-96750000D01*
X81630000Y-96750000D02*
X87500000Y-90880000D01*
X80500000Y-96750000D02*
X80500000Y-97750000D01*
X80500000Y-96750000D02*
X80500000Y-97250000D01*
X80500000Y-97250000D02*
X79380000Y-98370000D01*
X79380000Y-98370000D02*
X72500000Y-98370000D01*
X72500000Y-98370000D02*
X68500000Y-98370000D01*
X80200000Y-59500000D02*
X82560000Y-59500000D01*
X82560000Y-59500000D02*
X85380000Y-62320000D01*
X72400000Y-59500000D02*
X68600000Y-59500000D01*
X68600000Y-59500000D02*
X68500000Y-59400000D01*
X72400000Y-59500000D02*
X80200000Y-59500000D01*
X68500000Y-59400000D02*
X63780000Y-59500000D01*
X63780000Y-59500000D02*
X61000000Y-62280000D01*
X100050000Y-38550000D02*
X100650000Y-38550000D01*
X103050000Y-40950000D02*
X103200000Y-45650000D01*
X100650000Y-38550000D02*
X103050000Y-40950000D01*
X127050000Y-49580000D02*
X119680000Y-49580000D01*
X119680000Y-49580000D02*
X116250000Y-45650000D01*
X82700000Y-45000000D02*
X83250000Y-45000000D01*
X78100000Y-45000000D02*
X82700000Y-45000000D01*
X74200000Y-48900000D02*
X78100000Y-45000000D01*
X71840000Y-48900000D02*
X74200000Y-48900000D01*
X89700000Y-38550000D02*
X100050000Y-38550000D01*
X100050000Y-38550000D02*
X100150000Y-38550000D01*
X83250000Y-45000000D02*
X89700000Y-38550000D01*
X126400000Y-49580000D02*
X126400000Y-56300000D01*
X142200000Y-62350000D02*
X143000000Y-62250000D01*
X140000000Y-59500000D02*
X142200000Y-62350000D01*
X129600000Y-59500000D02*
X140000000Y-59500000D01*
X126400000Y-56300000D02*
X129600000Y-59500000D01*
X126400000Y-49580000D02*
X127050000Y-49580000D01*
X127050000Y-49580000D02*
X129400000Y-49580000D01*
X65600000Y-50800000D02*
X65600000Y-49200000D01*
X71840000Y-47740000D02*
X71840000Y-48900000D01*
X71100000Y-47000000D02*
X71840000Y-47740000D01*
X67800000Y-47000000D02*
X71100000Y-47000000D01*
X65600000Y-49200000D02*
X67800000Y-47000000D01*
X141600000Y-62350000D02*
X143000000Y-62250000D01*
X129000000Y-49500000D02*
X129220000Y-49400000D01*
X129220000Y-49400000D02*
X129400000Y-49580000D01*
X98700000Y-45650000D02*
X97900000Y-45650000D01*
X97900000Y-45650000D02*
X96000000Y-45400000D01*
X73400000Y-62400000D02*
X70960000Y-62400000D01*
X70960000Y-62400000D02*
X70500000Y-62860000D01*
X71840000Y-48900000D02*
X72000000Y-48900000D01*
X111950000Y-45550000D02*
X116250000Y-45650000D01*
X107450000Y-45550000D02*
X111950000Y-45550000D01*
X103200000Y-45650000D02*
X107450000Y-45550000D01*
X98700000Y-45650000D02*
X103200000Y-45650000D01*
X98300000Y-46050000D02*
X98700000Y-45650000D01*
X117250000Y-84870000D02*
X117250000Y-83500000D01*
X120250000Y-80500000D02*
X123250000Y-80500000D01*
X117250000Y-83500000D02*
X120250000Y-80500000D01*
X116750000Y-90000000D02*
X120000000Y-90000000D01*
X120000000Y-90000000D02*
X122500000Y-92500000D01*
X102800000Y-63600000D02*
X104850000Y-63600000D01*
X105500000Y-130400000D02*
X102300000Y-130400000D01*
X111000000Y-135900000D02*
X105500000Y-130400000D01*
X138800000Y-135900000D02*
X111000000Y-135900000D01*
X148850000Y-125850000D02*
X138800000Y-135900000D01*
X149000000Y-72750000D02*
X148850000Y-72900000D01*
X148850000Y-72900000D02*
X148850000Y-125850000D01*
X128000000Y-70000000D02*
X131000000Y-69750000D01*
X126500000Y-70500000D02*
X128000000Y-70000000D01*
X111750000Y-70500000D02*
X126500000Y-70500000D01*
X104850000Y-63600000D02*
X111750000Y-70500000D01*
X96600000Y-128600000D02*
X100500000Y-128600000D01*
X100500000Y-128600000D02*
X102300000Y-130400000D01*
X93500000Y-128320000D02*
X96320000Y-128320000D01*
X96320000Y-128320000D02*
X96600000Y-128600000D01*
X94500000Y-67000000D02*
X94500000Y-68900000D01*
X94500000Y-68900000D02*
X94500000Y-69000000D01*
X94500000Y-69000000D02*
X90750000Y-72750000D01*
X90750000Y-78250000D02*
X90750000Y-72750000D01*
X94500000Y-67000000D02*
X94500000Y-62400000D01*
X96600000Y-62400000D02*
X101600000Y-62400000D01*
X101600000Y-62400000D02*
X102800000Y-63600000D01*
X96600000Y-62400000D02*
X94500000Y-62400000D01*
X94500000Y-62400000D02*
X93080000Y-62400000D01*
X93080000Y-62400000D02*
X93000000Y-62320000D01*
X90750000Y-78250000D02*
X103000000Y-78250000D01*
X103000000Y-78250000D02*
X103625000Y-78875000D01*
X103040000Y-82750000D02*
X103040000Y-79460000D01*
X105370000Y-77130000D02*
X114000000Y-77130000D01*
X103040000Y-79460000D02*
X103625000Y-78875000D01*
X103625000Y-78875000D02*
X105370000Y-77130000D01*
X117250000Y-77250000D02*
X114120000Y-77250000D01*
X114120000Y-77250000D02*
X114000000Y-77130000D01*
X127680000Y-96100000D02*
X127680000Y-98780000D01*
X127680000Y-98780000D02*
X129500000Y-100600000D01*
X134000000Y-89500000D02*
X133100000Y-89500000D01*
X130000000Y-96100000D02*
X127680000Y-96100000D01*
X130600000Y-95500000D02*
X130000000Y-96100000D01*
X130600000Y-92000000D02*
X130600000Y-95500000D01*
X133100000Y-89500000D02*
X130600000Y-92000000D01*
X134000000Y-89500000D02*
X133500000Y-89500000D01*
X56750000Y-101500000D02*
X56750000Y-111000000D01*
X81100000Y-118400000D02*
X81100000Y-115100000D01*
X77300000Y-122200000D02*
X81100000Y-118400000D01*
X66200000Y-122200000D02*
X77300000Y-122200000D01*
X56750000Y-111000000D02*
X66200000Y-122200000D01*
X85700000Y-118400000D02*
X85700000Y-120520000D01*
X85700000Y-120520000D02*
X85880000Y-120700000D01*
X81100000Y-115100000D02*
X82400000Y-115100000D01*
X82400000Y-115100000D02*
X85700000Y-118400000D01*
X56750000Y-58300000D02*
X56750000Y-56250000D01*
X84300000Y-105400000D02*
X59400000Y-105400000D01*
X59400000Y-105400000D02*
X56750000Y-101500000D01*
X56750000Y-101500000D02*
X56750000Y-58300000D01*
X56750000Y-56250000D02*
X57600000Y-54000000D01*
X57600000Y-54000000D02*
X75400000Y-54000000D01*
X75400000Y-54000000D02*
X79200000Y-50200000D01*
X87500000Y-98500000D02*
X87500000Y-102200000D01*
X87500000Y-102200000D02*
X84300000Y-105400000D01*
X85300000Y-52200000D02*
X81200000Y-52200000D01*
X81200000Y-52200000D02*
X79200000Y-50200000D01*
X85300000Y-52200000D02*
X85300000Y-54620000D01*
X85300000Y-54620000D02*
X85380000Y-54700000D01*
X96170000Y-92500000D02*
X96170000Y-93420000D01*
X113250000Y-96250000D02*
X113250000Y-97750000D01*
X112000000Y-95000000D02*
X113250000Y-96250000D01*
X97750000Y-95000000D02*
X112000000Y-95000000D01*
X96170000Y-93420000D02*
X97750000Y-95000000D01*
X87500000Y-98500000D02*
X90170000Y-98500000D01*
X90170000Y-98500000D02*
X96170000Y-92500000D01*
X96170000Y-93170000D02*
X96170000Y-92500000D01*
X116750000Y-97620000D02*
X113380000Y-97620000D01*
X113380000Y-97620000D02*
X113250000Y-97750000D01*
X133250000Y-80250000D02*
X133250000Y-82500000D01*
X129500000Y-86250000D02*
X128380000Y-86250000D01*
X133250000Y-82500000D02*
X129500000Y-86250000D01*
X103200000Y-50650000D02*
X103250000Y-50650000D01*
X103250000Y-50650000D02*
X105900000Y-53450000D01*
X105900000Y-53450000D02*
X105900000Y-55300000D01*
X103200000Y-50650000D02*
X98700000Y-50650000D01*
X107450000Y-50550000D02*
X103250000Y-50600000D01*
X103250000Y-50600000D02*
X103200000Y-50650000D01*
X98700000Y-50650000D02*
X97600000Y-52400000D01*
X89600000Y-57100000D02*
X87920000Y-55420000D01*
X94600000Y-57100000D02*
X89600000Y-57100000D01*
X95600000Y-56100000D02*
X94600000Y-57100000D01*
X95600000Y-54400000D02*
X95600000Y-56100000D01*
X97600000Y-52400000D02*
X95600000Y-54400000D01*
X105900000Y-55300000D02*
X105900000Y-56120000D01*
X105900000Y-56120000D02*
X108380000Y-58600000D01*
X105900000Y-54900000D02*
X105900000Y-55300000D01*
X87920000Y-55420000D02*
X87920000Y-54700000D01*
X116250000Y-50650000D02*
X112050000Y-50650000D01*
X112050000Y-50650000D02*
X111950000Y-50550000D01*
X116250000Y-50650000D02*
X116250000Y-54950000D01*
X116250000Y-54950000D02*
X116100000Y-55100000D01*
X115750000Y-54750000D02*
X116100000Y-55100000D01*
X121500000Y-73000000D02*
X128000000Y-73000000D01*
X128000000Y-73000000D02*
X129250000Y-71750000D01*
X126380000Y-89500000D02*
X126100000Y-89500000D01*
X126100000Y-89500000D02*
X124600000Y-91000000D01*
X124600000Y-98800000D02*
X121664231Y-101735769D01*
X124600000Y-91000000D02*
X124600000Y-98800000D01*
X94750000Y-73000000D02*
X121500000Y-73000000D01*
X129250000Y-90000000D02*
X126880000Y-90000000D01*
X136250000Y-83000000D02*
X129250000Y-90000000D01*
X136250000Y-77750000D02*
X136250000Y-83000000D01*
X130250000Y-71750000D02*
X136250000Y-77750000D01*
X129250000Y-71750000D02*
X130250000Y-71750000D01*
X126880000Y-90000000D02*
X126380000Y-89500000D01*
X121664231Y-101735769D02*
X91250000Y-101500000D01*
X83630000Y-101500000D02*
X65250000Y-101500000D01*
X64250000Y-100500000D02*
X64250000Y-93410000D01*
X65250000Y-101500000D02*
X64250000Y-100500000D01*
X60500000Y-93410000D02*
X64250000Y-93410000D01*
X64250000Y-93410000D02*
X65000000Y-93410000D01*
X65000000Y-93410000D02*
X65840000Y-93410000D01*
X65840000Y-93410000D02*
X68500000Y-90750000D01*
X68500000Y-90750000D02*
X68500000Y-84370000D01*
X64500000Y-81750000D02*
X64500000Y-75750000D01*
X67250000Y-73000000D02*
X87130000Y-73000000D01*
X64500000Y-75750000D02*
X67250000Y-73000000D01*
X72250000Y-84370000D02*
X72250000Y-90500000D01*
X72250000Y-90500000D02*
X72500000Y-90750000D01*
X60500000Y-83250000D02*
X60500000Y-82250000D01*
X60500000Y-82250000D02*
X61000000Y-81750000D01*
X61000000Y-81750000D02*
X64500000Y-81750000D01*
X64500000Y-81750000D02*
X64750000Y-81750000D01*
X64750000Y-81750000D02*
X71000000Y-81750000D01*
X71000000Y-81750000D02*
X72250000Y-83000000D01*
X72250000Y-83000000D02*
X72250000Y-84370000D01*
X120900000Y-53300000D02*
X120900000Y-62200000D01*
X120900000Y-62200000D02*
X120660000Y-62440000D01*
X124300000Y-53520000D02*
X121020000Y-53420000D01*
X121020000Y-53420000D02*
X120900000Y-53300000D01*
X129400000Y-62280000D02*
X120720000Y-62380000D01*
X120720000Y-62380000D02*
X120660000Y-62440000D01*
X120660000Y-62440000D02*
X120660000Y-66200000D01*
X123940000Y-41500000D02*
X123940000Y-45540000D01*
X123940000Y-45540000D02*
X124300000Y-45900000D01*
X124460000Y-45740000D02*
X124300000Y-45900000D01*
X70500000Y-65400000D02*
X73100000Y-65400000D01*
X73100000Y-65400000D02*
X73400000Y-65700000D01*
X68500000Y-51780000D02*
X68700000Y-49500000D01*
X68700000Y-49500000D02*
X69300000Y-48900000D01*
X136000000Y-86250000D02*
X136000000Y-87300000D01*
X136900000Y-91420000D02*
X135520000Y-92800000D01*
X136900000Y-88200000D02*
X136900000Y-91420000D01*
X136000000Y-87300000D02*
X136900000Y-88200000D01*
X135520000Y-92800000D02*
X134200000Y-92800000D01*
X134360000Y-99160000D02*
X138800000Y-99160000D01*
X133200000Y-98000000D02*
X134360000Y-99160000D01*
X133200000Y-93800000D02*
X133200000Y-98000000D01*
X134200000Y-92800000D02*
X133200000Y-93800000D01*
X135400000Y-92680000D02*
X135520000Y-92800000D01*
X139000000Y-93870000D02*
X139000000Y-96420000D01*
X139000000Y-96420000D02*
X138800000Y-96620000D01*
X135300000Y-96100000D02*
X136770000Y-96100000D01*
X136770000Y-96100000D02*
X139000000Y-93870000D01*
X139250000Y-80710000D02*
X140210000Y-80710000D01*
X141250000Y-92000000D02*
X139000000Y-94250000D01*
X141250000Y-81750000D02*
X141250000Y-92000000D01*
X140210000Y-80710000D02*
X141250000Y-81750000D01*
X139000000Y-94250000D02*
X139000000Y-93870000D01*
X133750000Y-71000000D02*
X133750000Y-72670000D01*
X133750000Y-72670000D02*
X139250000Y-78170000D01*
X138750000Y-77670000D02*
X139250000Y-78170000D01*
X123200000Y-66200000D02*
X136570000Y-66200000D01*
X136570000Y-66200000D02*
X141370000Y-71000000D01*
X118120000Y-66200000D02*
X118120000Y-67370000D01*
X140500000Y-74500000D02*
X142750000Y-74500000D01*
X139000000Y-73000000D02*
X140500000Y-74500000D01*
X139000000Y-71500000D02*
X139000000Y-73000000D01*
X135250000Y-67750000D02*
X139000000Y-71500000D01*
X125750000Y-67750000D02*
X135250000Y-67750000D01*
X124750000Y-68750000D02*
X125750000Y-67750000D01*
X119500000Y-68750000D02*
X124750000Y-68750000D01*
X118120000Y-67370000D02*
X119500000Y-68750000D01*
X142750000Y-74500000D02*
X142450000Y-74500000D01*
X90750000Y-85870000D02*
X90750000Y-85000000D01*
X93000000Y-82750000D02*
X100500000Y-82750000D01*
X90750000Y-85000000D02*
X93000000Y-82750000D01*
X87250000Y-86000000D02*
X90620000Y-86000000D01*
X90620000Y-86000000D02*
X90750000Y-85870000D01*
X100500000Y-82750000D02*
X100250000Y-82750000D01*
X113250000Y-90130000D02*
X110000000Y-90130000D01*
X110000000Y-90130000D02*
X102870000Y-90130000D01*
X102870000Y-90130000D02*
X101250000Y-92500000D01*
X98280000Y-55300000D02*
X100100000Y-55300000D01*
X103600000Y-58800000D02*
X105700000Y-58800000D01*
X100100000Y-55300000D02*
X103600000Y-58800000D01*
X108480000Y-55100000D02*
X109500000Y-55100000D01*
X113000000Y-58600000D02*
X116000000Y-58600000D01*
X109500000Y-55100000D02*
X113000000Y-58600000D01*
X82500000Y-127100000D02*
X84660000Y-127100000D01*
X84660000Y-127100000D02*
X85880000Y-128320000D01*
X72600000Y-127200000D02*
X82400000Y-127200000D01*
X82400000Y-127200000D02*
X82500000Y-127100000D01*
X72600000Y-127200000D02*
X69200000Y-127200000D01*
X60700000Y-126280000D02*
X68280000Y-126280000D01*
X68280000Y-126280000D02*
X69200000Y-127200000D01*
X103800000Y-115050000D02*
X103800000Y-116600000D01*
X103800000Y-116600000D02*
X106850000Y-119650000D01*
X103800000Y-115050000D02*
X99700000Y-115050000D01*
X99700000Y-115050000D02*
X99650000Y-115100000D01*
X108250000Y-115050000D02*
X103800000Y-115050000D01*
X106850000Y-119650000D02*
X106850000Y-120350000D01*
X106850000Y-120350000D02*
X109080000Y-122630000D01*
X109080000Y-122630000D02*
X109080000Y-122850000D01*
X108250000Y-115050000D02*
X108250000Y-115250000D01*
X88420000Y-120700000D02*
X88420000Y-121220000D01*
X88420000Y-121220000D02*
X89500000Y-122300000D01*
X98600000Y-115400000D02*
X99650000Y-115100000D01*
X97000000Y-117000000D02*
X98600000Y-115400000D01*
X97000000Y-121000000D02*
X97000000Y-117000000D01*
X95700000Y-122300000D02*
X97000000Y-121000000D01*
X89500000Y-122300000D02*
X95700000Y-122300000D01*
X117250000Y-114950000D02*
X117250000Y-119450000D01*
X117250000Y-119450000D02*
X117000000Y-119700000D01*
X112650000Y-115050000D02*
X117150000Y-115050000D01*
X117150000Y-115050000D02*
X117250000Y-114950000D01*
X94854621Y-103804229D02*
X101504229Y-103804229D01*
X103800000Y-106100000D02*
X103800000Y-110050000D01*
X101504229Y-103804229D02*
X103800000Y-106100000D01*
X117250000Y-109950000D02*
X112750000Y-109950000D01*
X112750000Y-109950000D02*
X112650000Y-110050000D01*
X143000000Y-109100000D02*
X118100000Y-109100000D01*
X134400000Y-41100000D02*
X133300000Y-42200000D01*
X133300000Y-42200000D02*
X133300000Y-47700000D01*
X133300000Y-47700000D02*
X135180000Y-49580000D01*
X137000000Y-49580000D02*
X135180000Y-49580000D01*
X151300000Y-51300000D02*
X151250000Y-46000000D01*
X143000000Y-109100000D02*
X146800000Y-105300000D01*
X146800000Y-105300000D02*
X146800000Y-72400000D01*
X146800000Y-72400000D02*
X151300000Y-66900000D01*
X151300000Y-66900000D02*
X151300000Y-51300000D01*
X147100000Y-41100000D02*
X139300000Y-41100000D01*
X139300000Y-41100000D02*
X134400000Y-41100000D01*
X150950000Y-46000000D02*
X147100000Y-41100000D01*
X151250000Y-46000000D02*
X150950000Y-46000000D01*
X118100000Y-109100000D02*
X117250000Y-109950000D01*
X137000000Y-49580000D02*
X137080000Y-49580000D01*
X137080000Y-49580000D02*
X137750000Y-50250000D01*
X137750000Y-50250000D02*
X143250000Y-50250000D01*
X65500000Y-116400000D02*
X65500000Y-114700000D01*
X70880000Y-114000000D02*
X71940000Y-115060000D01*
X66200000Y-114000000D02*
X70880000Y-114000000D01*
X65500000Y-114700000D02*
X66200000Y-114000000D01*
X71940000Y-115060000D02*
X71940000Y-116300000D01*
X71940000Y-116300000D02*
X71940000Y-115060000D01*
X71940000Y-115060000D02*
X75900000Y-111100000D01*
X75900000Y-111100000D02*
X85000000Y-111100000D01*
X85000000Y-111100000D02*
X87100000Y-109000000D01*
X87100000Y-109000000D02*
X90100000Y-109000000D01*
X90100000Y-109000000D02*
X94854621Y-103804229D01*
X94854621Y-103804229D02*
X94950000Y-103700000D01*
X72600000Y-119580000D02*
X72880000Y-119580000D01*
X75500000Y-130000000D02*
X72760000Y-130000000D01*
X72760000Y-130000000D02*
X72600000Y-130160000D01*
X71940000Y-116300000D02*
X71940000Y-118920000D01*
X71940000Y-118920000D02*
X72600000Y-119580000D01*
X108250000Y-110050000D02*
X112650000Y-110050000D01*
X103800000Y-110050000D02*
X108250000Y-110050000D01*
X99650000Y-110100000D02*
X103800000Y-110050000D01*
X96600000Y-111600000D02*
X97900000Y-111600000D01*
X97900000Y-111600000D02*
X99250000Y-110100000D01*
X99250000Y-110100000D02*
X99650000Y-110100000D01*
X72600000Y-132700000D02*
X75200000Y-132700000D01*
X75200000Y-132700000D02*
X75600000Y-133100000D01*
X69400000Y-116300000D02*
X69400000Y-119380000D01*
X69400000Y-119380000D02*
X69200000Y-119580000D01*
X99230000Y-119650000D02*
X100450000Y-119650000D01*
X103550000Y-122750000D02*
X106850000Y-122750000D01*
X100450000Y-119650000D02*
X103550000Y-122750000D01*
X109380000Y-119700000D02*
X110250000Y-119700000D01*
X113400000Y-122850000D02*
X116700000Y-122850000D01*
X110250000Y-119700000D02*
X113400000Y-122850000D01*
X143000000Y-57170000D02*
X132060000Y-57320000D01*
X132060000Y-57320000D02*
X129400000Y-54660000D01*
X129400000Y-54660000D02*
X129400000Y-54700000D01*
X142420000Y-57750000D02*
X143000000Y-57170000D01*
X137000000Y-54660000D02*
X137140000Y-54660000D01*
X137140000Y-54660000D02*
X137700000Y-53900000D01*
X137700000Y-53900000D02*
X145700000Y-53900000D01*
X145700000Y-53900000D02*
X147100000Y-52300000D01*
X147100000Y-52300000D02*
X147100000Y-48720000D01*
X147100000Y-48720000D02*
X143250000Y-45170000D01*
X137000000Y-54660000D02*
X136460000Y-54660000D01*
X105950000Y-41250000D02*
X106150000Y-41650000D01*
X129600000Y-41800000D02*
X129600000Y-44300000D01*
X126800000Y-39000000D02*
X129600000Y-41800000D01*
X110600000Y-39000000D02*
X126800000Y-39000000D01*
X106150000Y-41650000D02*
X110600000Y-39000000D01*
X129600000Y-44300000D02*
X129400000Y-44500000D01*
X142300000Y-107700000D02*
X108100000Y-107700000D01*
X142300000Y-107700000D02*
X145400000Y-104600000D01*
X145400000Y-104600000D02*
X145400000Y-71600000D01*
X145400000Y-71600000D02*
X149900000Y-66100000D01*
X149900000Y-66100000D02*
X149900000Y-47000000D01*
X142700000Y-42600000D02*
X146600000Y-42600000D01*
X149900000Y-46900000D02*
X146600000Y-42600000D01*
X149900000Y-47000000D02*
X149900000Y-46900000D01*
X108100000Y-107700000D02*
X106250000Y-105850000D01*
X142700000Y-42600000D02*
X138900000Y-42600000D01*
X138900000Y-42600000D02*
X137000000Y-44500000D01*
X142700000Y-42600000D02*
X142200000Y-42600000D01*
X86400000Y-64900000D02*
X81820000Y-64900000D01*
X81820000Y-64900000D02*
X81020000Y-65700000D01*
X86400000Y-64900000D02*
X86400000Y-66580000D01*
X86400000Y-66580000D02*
X84980000Y-68000000D01*
X87920000Y-62320000D02*
X87920000Y-63380000D01*
X87920000Y-63380000D02*
X86400000Y-64900000D01*
X87920000Y-62320000D02*
X87920000Y-62660000D01*
X81120000Y-65600000D02*
X81020000Y-65700000D01*
X81020000Y-62400000D02*
X81020000Y-65700000D01*
X90460000Y-62320000D02*
X90460000Y-60740000D01*
X96800000Y-60200000D02*
X98080000Y-58920000D01*
X91000000Y-60200000D02*
X96800000Y-60200000D01*
X90460000Y-60740000D02*
X91000000Y-60200000D01*
X98080000Y-58920000D02*
X98080000Y-58800000D01*
X91400000Y-64900000D02*
X91400000Y-66800000D01*
X91400000Y-66800000D02*
X92600000Y-68000000D01*
X90460000Y-62320000D02*
X90460000Y-63960000D01*
X90460000Y-63960000D02*
X91400000Y-64900000D01*
X87400000Y-131000000D02*
X87400000Y-132780000D01*
X87400000Y-132780000D02*
X86080000Y-134100000D01*
X88420000Y-128320000D02*
X88420000Y-129980000D01*
X88420000Y-129980000D02*
X87400000Y-131000000D01*
X83220000Y-133100000D02*
X85080000Y-133100000D01*
X85080000Y-133100000D02*
X86080000Y-134100000D01*
X83120000Y-130000000D02*
X83120000Y-133000000D01*
X83120000Y-133000000D02*
X83220000Y-133100000D01*
X90960000Y-128320000D02*
X90960000Y-126340000D01*
X99180000Y-124620000D02*
X99230000Y-122750000D01*
X97700000Y-126100000D02*
X99180000Y-124620000D01*
X91200000Y-126100000D02*
X97700000Y-126100000D01*
X90960000Y-126340000D02*
X91200000Y-126100000D01*
X92400000Y-131000000D02*
X92400000Y-132800000D01*
X92400000Y-132800000D02*
X93700000Y-134100000D01*
X90960000Y-128320000D02*
X90960000Y-129560000D01*
X90960000Y-129560000D02*
X92400000Y-131000000D01*
X89100000Y-51900000D02*
X89900000Y-51900000D01*
X89900000Y-51900000D02*
X90460000Y-52460000D01*
X90460000Y-52460000D02*
X90460000Y-54700000D01*
X88380000Y-45400000D02*
X88380000Y-48600000D01*
X88380000Y-48600000D02*
X88280000Y-48700000D01*
X88280000Y-48700000D02*
X88280000Y-48780000D01*
X88280000Y-48780000D02*
X89100000Y-49400000D01*
X89100000Y-49400000D02*
X89100000Y-51900000D01*
X95900000Y-48700000D02*
X95200000Y-48700000D01*
X95200000Y-48700000D02*
X94000000Y-47300000D01*
X96150000Y-42000000D02*
X98330000Y-41250000D01*
X94800000Y-42700000D02*
X96150000Y-42000000D01*
X94000000Y-43500000D02*
X94800000Y-42700000D01*
X94000000Y-47300000D02*
X94000000Y-43500000D01*
X95900000Y-48700000D02*
X95800000Y-48700000D01*
X95800000Y-48700000D02*
X94100000Y-50200000D01*
X94100000Y-50200000D02*
X94100000Y-51900000D01*
X94100000Y-51900000D02*
X94100000Y-53600000D01*
X94100000Y-53600000D02*
X93000000Y-54700000D01*
X88980000Y-114800000D02*
X88980000Y-111600000D01*
X89900000Y-117900000D02*
X89900000Y-115720000D01*
X89900000Y-115720000D02*
X88980000Y-114800000D01*
X90960000Y-120700000D02*
X90960000Y-118960000D01*
X90960000Y-118960000D02*
X89900000Y-117900000D01*
X96600000Y-114800000D02*
X95400000Y-114800000D01*
X96000000Y-107700000D02*
X98630000Y-105850000D01*
X94500000Y-109200000D02*
X96000000Y-107700000D01*
X94500000Y-113900000D02*
X94500000Y-109200000D01*
X95400000Y-114800000D02*
X94500000Y-113900000D01*
X94900000Y-117900000D02*
X94900000Y-116500000D01*
X94900000Y-116500000D02*
X96600000Y-114800000D01*
X93500000Y-120700000D02*
X93500000Y-119300000D01*
X93500000Y-119300000D02*
X94900000Y-117900000D01*
M02*
