G04 #@! TF.FileFunction,Soldermask,Bot*
%FSLAX46Y46*%
G04 Gerber Fmt 4.6, Leading zero omitted, Abs format (unit mm)*
G04 Created by KiCad (PCBNEW 4.0.7) date 11/16/20 19:29:27*
%MOMM*%
%LPD*%
G01*
G04 APERTURE LIST*
%ADD10C,0.100000*%
%ADD11R,2.400000X2.400000*%
%ADD12C,2.400000*%
%ADD13C,2.000000*%
%ADD14R,2.000000X2.000000*%
%ADD15R,2.600000X2.600000*%
%ADD16O,2.600000X2.600000*%
%ADD17R,2.200000X2.200000*%
%ADD18C,2.200000*%
%ADD19R,3.400000X3.400000*%
%ADD20C,3.400000*%
%ADD21R,2.100000X2.100000*%
%ADD22O,2.100000X2.100000*%
%ADD23O,2.200000X2.200000*%
%ADD24O,2.000000X2.000000*%
%ADD25C,1.920000*%
%ADD26R,1.920000X1.920000*%
%ADD27C,3.500000*%
G04 APERTURE END LIST*
D10*
D11*
X80250000Y-79250000D03*
D12*
X80250000Y-84250000D03*
D11*
X80500000Y-91750000D03*
D12*
X80500000Y-96750000D03*
D13*
X80200000Y-59500000D03*
X80200000Y-54500000D03*
D14*
X123250000Y-80500000D03*
D13*
X123250000Y-83000000D03*
D14*
X122500000Y-95000000D03*
D13*
X122500000Y-92500000D03*
D14*
X102800000Y-63600000D03*
D13*
X102800000Y-66100000D03*
X96600000Y-62400000D03*
X96600000Y-67400000D03*
D14*
X129500000Y-100600000D03*
D13*
X129500000Y-103100000D03*
X85300000Y-47200000D03*
X85300000Y-52200000D03*
D14*
X79200000Y-47700000D03*
D13*
X79200000Y-50200000D03*
D14*
X130750000Y-80250000D03*
D13*
X133250000Y-80250000D03*
X107450000Y-45550000D03*
X107450000Y-50550000D03*
X103200000Y-45650000D03*
X103200000Y-50650000D03*
X98700000Y-45650000D03*
X98700000Y-50650000D03*
X116250000Y-45650000D03*
X116250000Y-50650000D03*
X111950000Y-45550000D03*
X111950000Y-50550000D03*
D15*
X91250000Y-101500000D03*
D16*
X83630000Y-101500000D03*
D15*
X68500000Y-76750000D03*
D16*
X68500000Y-84370000D03*
D15*
X68500000Y-90750000D03*
D16*
X68500000Y-98370000D03*
D15*
X94750000Y-73000000D03*
D16*
X87130000Y-73000000D03*
D15*
X72250000Y-76750000D03*
D16*
X72250000Y-84370000D03*
D15*
X72500000Y-90750000D03*
D16*
X72500000Y-98370000D03*
D15*
X114000000Y-84750000D03*
D16*
X114000000Y-77130000D03*
D15*
X87500000Y-98500000D03*
D16*
X87500000Y-90880000D03*
D15*
X120900000Y-53300000D03*
D16*
X120900000Y-45680000D03*
D17*
X121400000Y-41500000D03*
D18*
X123940000Y-41500000D03*
D19*
X60500000Y-83250000D03*
D20*
X60500000Y-88330000D03*
X60500000Y-93410000D03*
D19*
X61000000Y-57200000D03*
D20*
X61000000Y-62280000D03*
D21*
X70500000Y-65400000D03*
D22*
X70500000Y-62860000D03*
D21*
X69300000Y-48900000D03*
D22*
X71840000Y-48900000D03*
D17*
X123200000Y-66200000D03*
D23*
X120660000Y-66200000D03*
X118120000Y-66200000D03*
D13*
X65600000Y-50800000D03*
D24*
X57980000Y-50800000D03*
D13*
X72400000Y-59500000D03*
D24*
X72400000Y-51880000D03*
D13*
X87250000Y-86000000D03*
D24*
X87250000Y-78380000D03*
D13*
X110000000Y-97750000D03*
D24*
X110000000Y-90130000D03*
D13*
X90750000Y-78250000D03*
D24*
X90750000Y-85870000D03*
D13*
X113250000Y-97750000D03*
D24*
X113250000Y-90130000D03*
D13*
X68500000Y-59400000D03*
D24*
X68500000Y-51780000D03*
D13*
X117250000Y-77250000D03*
D24*
X117250000Y-84870000D03*
D13*
X116750000Y-90000000D03*
D24*
X116750000Y-97620000D03*
D13*
X73400000Y-62400000D03*
D24*
X81020000Y-62400000D03*
D13*
X73400000Y-65700000D03*
D24*
X81020000Y-65700000D03*
D13*
X134000000Y-89500000D03*
D24*
X126380000Y-89500000D03*
D13*
X135300000Y-96100000D03*
D24*
X127680000Y-96100000D03*
D13*
X92600000Y-68000000D03*
D24*
X84980000Y-68000000D03*
D13*
X136000000Y-86250000D03*
D24*
X128380000Y-86250000D03*
D13*
X127900000Y-92800000D03*
D24*
X135520000Y-92800000D03*
D13*
X105700000Y-58800000D03*
D24*
X98080000Y-58800000D03*
D13*
X139000000Y-86250000D03*
D24*
X139000000Y-93870000D03*
D13*
X105900000Y-55300000D03*
D24*
X98280000Y-55300000D03*
D13*
X133750000Y-71000000D03*
D24*
X141370000Y-71000000D03*
D13*
X116000000Y-58600000D03*
D24*
X108380000Y-58600000D03*
D13*
X116100000Y-55100000D03*
D24*
X108480000Y-55100000D03*
D13*
X124300000Y-45900000D03*
D24*
X124300000Y-53520000D03*
D13*
X96000000Y-45400000D03*
D24*
X88380000Y-45400000D03*
D13*
X95900000Y-48700000D03*
D24*
X88280000Y-48700000D03*
D18*
X129400000Y-54660000D03*
X129400000Y-44500000D03*
X129400000Y-49580000D03*
X137000000Y-49580000D03*
X137000000Y-54660000D03*
X137000000Y-44500000D03*
X129400000Y-62280000D03*
X137000000Y-62280000D03*
D17*
X100500000Y-82750000D03*
D23*
X103040000Y-82750000D03*
X105580000Y-82750000D03*
D17*
X101250000Y-92500000D03*
D23*
X98710000Y-92500000D03*
X96170000Y-92500000D03*
D14*
X93000000Y-54700000D03*
D24*
X85380000Y-62320000D03*
X90460000Y-54700000D03*
X87920000Y-62320000D03*
X87920000Y-54700000D03*
X90460000Y-62320000D03*
X85380000Y-54700000D03*
X93000000Y-62320000D03*
D25*
X138800000Y-99160000D03*
X138800000Y-96620000D03*
D26*
X138800000Y-101700000D03*
D25*
X139250000Y-80710000D03*
X139250000Y-78170000D03*
D26*
X139250000Y-83250000D03*
D13*
X142750000Y-74500000D03*
D24*
X130050000Y-74500000D03*
D13*
X82500000Y-127100000D03*
X82500000Y-122100000D03*
D14*
X102300000Y-130400000D03*
D13*
X102300000Y-132900000D03*
X96600000Y-128600000D03*
X96600000Y-133600000D03*
X85700000Y-113400000D03*
X85700000Y-118400000D03*
D14*
X78600000Y-115100000D03*
D13*
X81100000Y-115100000D03*
X99650000Y-110100000D03*
X99650000Y-115100000D03*
X103800000Y-110050000D03*
X103800000Y-115050000D03*
X108250000Y-110050000D03*
X108250000Y-115050000D03*
X112650000Y-110050000D03*
X112650000Y-115050000D03*
X117250000Y-109950000D03*
X117250000Y-114950000D03*
D19*
X60700000Y-121200000D03*
D20*
X60700000Y-126280000D03*
D19*
X143000000Y-62250000D03*
D20*
X143000000Y-57170000D03*
D19*
X143250000Y-50250000D03*
D20*
X143250000Y-45170000D03*
D21*
X72600000Y-132700000D03*
D22*
X72600000Y-130160000D03*
D21*
X69400000Y-116300000D03*
D22*
X71940000Y-116300000D03*
D13*
X65500000Y-116400000D03*
D24*
X57880000Y-116400000D03*
D13*
X72600000Y-127200000D03*
D24*
X72600000Y-119580000D03*
D13*
X69200000Y-127200000D03*
D24*
X69200000Y-119580000D03*
D13*
X75500000Y-130000000D03*
D24*
X83120000Y-130000000D03*
D13*
X75600000Y-133100000D03*
D24*
X83220000Y-133100000D03*
D13*
X93700000Y-134100000D03*
D24*
X86080000Y-134100000D03*
D13*
X106850000Y-122750000D03*
D24*
X99230000Y-122750000D03*
D13*
X106850000Y-119650000D03*
D24*
X99230000Y-119650000D03*
D13*
X116700000Y-122850000D03*
D24*
X109080000Y-122850000D03*
D13*
X117000000Y-119700000D03*
D24*
X109380000Y-119700000D03*
D13*
X96600000Y-111600000D03*
D24*
X88980000Y-111600000D03*
D13*
X96600000Y-114800000D03*
D24*
X88980000Y-114800000D03*
D14*
X93500000Y-120700000D03*
D24*
X85880000Y-128320000D03*
X90960000Y-120700000D03*
X88420000Y-128320000D03*
X88420000Y-120700000D03*
X90960000Y-128320000D03*
X85880000Y-120700000D03*
X93500000Y-128320000D03*
D13*
X105950000Y-41250000D03*
D24*
X98330000Y-41250000D03*
D13*
X106250000Y-105850000D03*
D24*
X98630000Y-105850000D03*
D13*
X86400000Y-64900000D03*
X91400000Y-64900000D03*
X87400000Y-131000000D03*
X92400000Y-131000000D03*
X89100000Y-51900000D03*
X94100000Y-51900000D03*
X89900000Y-117900000D03*
X94900000Y-117900000D03*
D27*
X151000000Y-134000000D03*
X57000000Y-134000000D03*
X57000000Y-40000000D03*
X151000000Y-40000000D03*
M02*
