G04 #@! TF.FileFunction,Soldermask,Bot*
%FSLAX46Y46*%
G04 Gerber Fmt 4.6, Leading zero omitted, Abs format (unit mm)*
G04 Created by KiCad (PCBNEW 4.0.7) date 09/04/21 10:56:44*
%MOMM*%
%LPD*%
G01*
G04 APERTURE LIST*
%ADD10C,0.100000*%
%ADD11C,2.000000*%
%ADD12O,2.000000X2.000000*%
%ADD13R,2.000000X2.000000*%
%ADD14R,2.600000X2.600000*%
%ADD15O,2.600000X2.600000*%
%ADD16R,2.200000X2.200000*%
%ADD17C,2.200000*%
%ADD18R,3.400000X3.400000*%
%ADD19C,3.400000*%
%ADD20R,2.100000X2.100000*%
%ADD21O,2.100000X2.100000*%
%ADD22O,2.200000X2.200000*%
%ADD23C,1.920000*%
%ADD24R,1.920000X1.920000*%
%ADD25C,3.500000*%
%ADD26R,2.800000X2.800000*%
%ADD27C,2.800000*%
G04 APERTURE END LIST*
D10*
D11*
X104140000Y-109982000D03*
X104140000Y-114982000D03*
X147066000Y-74422000D03*
D12*
X134366000Y-74422000D03*
D11*
X80200000Y-59500000D03*
X80200000Y-54500000D03*
D13*
X102362000Y-66294000D03*
D11*
X102362000Y-63794000D03*
X96600000Y-62400000D03*
X96600000Y-67400000D03*
D13*
X147828000Y-108966000D03*
D11*
X147828000Y-106466000D03*
X85300000Y-47200000D03*
X85300000Y-52200000D03*
D13*
X78994000Y-48006000D03*
D11*
X78994000Y-50506000D03*
D13*
X138684000Y-78994000D03*
D11*
X138684000Y-81494000D03*
X107950000Y-45720000D03*
X107950000Y-50720000D03*
X103378000Y-45720000D03*
X103378000Y-50720000D03*
X98700000Y-45650000D03*
X98700000Y-50650000D03*
X116840000Y-45720000D03*
X116840000Y-50720000D03*
X112522000Y-45720000D03*
X112522000Y-50720000D03*
D14*
X87122000Y-101854000D03*
D15*
X79502000Y-101854000D03*
D14*
X68246000Y-74210000D03*
D15*
X68246000Y-81830000D03*
D14*
X68246000Y-88210000D03*
D15*
X68246000Y-95830000D03*
D14*
X87122000Y-105410000D03*
D15*
X79502000Y-105410000D03*
D14*
X71996000Y-74210000D03*
D15*
X71996000Y-81830000D03*
D14*
X72246000Y-88210000D03*
D15*
X72246000Y-95830000D03*
D14*
X127762000Y-84836000D03*
D15*
X127762000Y-77216000D03*
D14*
X77470000Y-88138000D03*
D15*
X77470000Y-95758000D03*
D14*
X120900000Y-53300000D03*
D15*
X120900000Y-45680000D03*
D16*
X121400000Y-41500000D03*
D17*
X123940000Y-41500000D03*
D18*
X61976000Y-83312000D03*
D19*
X61976000Y-88392000D03*
X61976000Y-93472000D03*
D18*
X61000000Y-57200000D03*
D19*
X61000000Y-62280000D03*
D20*
X70500000Y-65400000D03*
D21*
X70500000Y-62860000D03*
D20*
X69300000Y-48900000D03*
D21*
X71840000Y-48900000D03*
D16*
X123190000Y-69342000D03*
D22*
X125730000Y-69342000D03*
X128270000Y-69342000D03*
D11*
X65600000Y-50800000D03*
D12*
X57980000Y-50800000D03*
D11*
X72400000Y-59500000D03*
D12*
X72400000Y-51880000D03*
D11*
X91186000Y-81026000D03*
D12*
X91186000Y-73406000D03*
D11*
X119126000Y-96266000D03*
D12*
X119126000Y-88646000D03*
D11*
X94234000Y-73406000D03*
D12*
X94234000Y-81026000D03*
D11*
X122174000Y-96266000D03*
D12*
X122174000Y-88646000D03*
D11*
X68500000Y-59400000D03*
D12*
X68500000Y-51780000D03*
D11*
X131318000Y-76200000D03*
D12*
X131318000Y-83820000D03*
D11*
X138430000Y-87376000D03*
D12*
X130810000Y-87376000D03*
D11*
X73400000Y-62400000D03*
D12*
X81020000Y-62400000D03*
D11*
X73400000Y-65700000D03*
D12*
X81020000Y-65700000D03*
D11*
X146050000Y-113538000D03*
D12*
X138430000Y-113538000D03*
D11*
X144272000Y-86106000D03*
D12*
X144272000Y-93726000D03*
D11*
X92600000Y-68000000D03*
D12*
X84980000Y-68000000D03*
D11*
X141224000Y-93726000D03*
D12*
X141224000Y-86106000D03*
D11*
X141732000Y-109982000D03*
D12*
X141732000Y-102362000D03*
D11*
X115316000Y-60960000D03*
D12*
X107696000Y-60960000D03*
D11*
X147574000Y-86106000D03*
D12*
X147574000Y-93726000D03*
D11*
X125222000Y-60960000D03*
D12*
X117602000Y-60960000D03*
D11*
X139192000Y-71120000D03*
D12*
X146812000Y-71120000D03*
D11*
X122682000Y-57150000D03*
D12*
X115062000Y-57150000D03*
D11*
X118364000Y-53848000D03*
D12*
X110744000Y-53848000D03*
D11*
X124300000Y-45900000D03*
D12*
X124300000Y-53520000D03*
D11*
X88646000Y-38354000D03*
D12*
X88646000Y-45974000D03*
D11*
X95900000Y-48700000D03*
D12*
X88280000Y-48700000D03*
D17*
X129400000Y-54660000D03*
X129400000Y-44500000D03*
X129400000Y-49580000D03*
X137000000Y-49580000D03*
X137000000Y-54660000D03*
X137000000Y-44500000D03*
X129400000Y-62280000D03*
X137000000Y-62280000D03*
D16*
X106172000Y-75438000D03*
D22*
X108712000Y-75438000D03*
X111252000Y-75438000D03*
D16*
X108712000Y-93218000D03*
D22*
X106172000Y-93218000D03*
X103632000Y-93218000D03*
D23*
X147320000Y-99314000D03*
X147320000Y-96774000D03*
D24*
X147320000Y-101854000D03*
D23*
X146050000Y-80518000D03*
X146050000Y-77978000D03*
D24*
X146050000Y-83058000D03*
D11*
X82500000Y-127100000D03*
X82500000Y-122100000D03*
D13*
X102362000Y-130810000D03*
D11*
X102362000Y-133310000D03*
X96600000Y-128600000D03*
X96600000Y-133600000D03*
X85700000Y-113400000D03*
X85700000Y-118400000D03*
D13*
X79756000Y-115316000D03*
D11*
X79756000Y-117816000D03*
X99650000Y-110100000D03*
X99650000Y-115100000D03*
X108966000Y-109982000D03*
X108966000Y-114982000D03*
X113792000Y-109982000D03*
X113792000Y-114982000D03*
X117856000Y-109982000D03*
X117856000Y-114982000D03*
D18*
X60700000Y-121200000D03*
D19*
X60700000Y-126280000D03*
D18*
X143000000Y-62250000D03*
D19*
X143000000Y-57170000D03*
D18*
X143250000Y-50250000D03*
D19*
X143250000Y-45170000D03*
D20*
X72600000Y-132700000D03*
D21*
X72600000Y-130160000D03*
D20*
X69400000Y-116300000D03*
D21*
X71940000Y-116300000D03*
D11*
X65500000Y-116400000D03*
D12*
X57880000Y-116400000D03*
D11*
X72600000Y-127200000D03*
D12*
X72600000Y-119580000D03*
D11*
X69200000Y-127200000D03*
D12*
X69200000Y-119580000D03*
D11*
X75500000Y-130000000D03*
D12*
X83120000Y-130000000D03*
D11*
X75600000Y-133100000D03*
D12*
X83220000Y-133100000D03*
D11*
X93700000Y-134100000D03*
D12*
X86080000Y-134100000D03*
D11*
X110490000Y-121666000D03*
D12*
X102870000Y-121666000D03*
D11*
X115824000Y-118110000D03*
D12*
X108204000Y-118110000D03*
D11*
X125730000Y-120650000D03*
D12*
X118110000Y-120650000D03*
D11*
X118110000Y-123952000D03*
D12*
X125730000Y-123952000D03*
D11*
X105664000Y-118110000D03*
D12*
X98044000Y-118110000D03*
D11*
X96600000Y-114800000D03*
D12*
X88980000Y-114800000D03*
D11*
X100838000Y-43180000D03*
D12*
X93218000Y-43180000D03*
D11*
X107442000Y-107188000D03*
D12*
X99822000Y-107188000D03*
D11*
X86400000Y-64900000D03*
X91400000Y-64900000D03*
X87400000Y-131000000D03*
X92400000Y-131000000D03*
X89100000Y-51900000D03*
X94100000Y-51900000D03*
X89900000Y-117900000D03*
X94900000Y-117900000D03*
D25*
X151000000Y-134000000D03*
X57000000Y-134000000D03*
X57000000Y-40000000D03*
X151000000Y-40000000D03*
D26*
X83566000Y-77978000D03*
D27*
X78566000Y-77978000D03*
D26*
X84328000Y-93218000D03*
D27*
X89328000Y-93218000D03*
D26*
X131572000Y-93726000D03*
D27*
X131572000Y-98726000D03*
D26*
X128778000Y-113284000D03*
D27*
X128778000Y-108284000D03*
D13*
X93000000Y-54700000D03*
D12*
X85380000Y-62320000D03*
X90460000Y-54700000D03*
X87920000Y-62320000D03*
X87920000Y-54700000D03*
X90460000Y-62320000D03*
X85380000Y-54700000D03*
X93000000Y-62320000D03*
D13*
X93500000Y-120700000D03*
D12*
X85880000Y-128320000D03*
X90960000Y-120700000D03*
X88420000Y-128320000D03*
X88420000Y-120700000D03*
X90960000Y-128320000D03*
X85880000Y-120700000D03*
X93500000Y-128320000D03*
D20*
X113030000Y-133858000D03*
D21*
X115570000Y-133858000D03*
D20*
X92964000Y-39116000D03*
D21*
X95504000Y-39116000D03*
D13*
X121412000Y-128270000D03*
D11*
X121412000Y-130770000D03*
D13*
X72390000Y-41148000D03*
D11*
X74890000Y-41148000D03*
D13*
X112776000Y-126492000D03*
D11*
X112776000Y-128992000D03*
D13*
X83312000Y-41148000D03*
D11*
X80812000Y-41148000D03*
M02*
