M48
;DRILL file {KiCad 4.0.7} date 09/04/21 10:56:46
;FORMAT={-:-/ absolute / inch / decimal}
FMAT,2
INCH,TZ
T1C0.031
T2C0.035
T3C0.039
T4C0.043
T5C0.047
T6C0.060
%
G90
G05
M72
T1
X2.2787Y-4.5827
X2.2827Y-2.
X2.5787Y-4.5827
X2.5827Y-2.
X2.6969Y-2.0386
X2.6969Y-2.3386
X2.7244Y-4.7079
X2.7244Y-5.0079
X2.85Y-1.62
X2.8504Y-2.0425
X2.8504Y-2.3425
X2.8583Y-4.7079
X2.8583Y-5.0079
X2.8898Y-2.4567
X2.8898Y-2.5866
X2.9484Y-1.62
X2.9724Y-5.1181
X2.9764Y-5.2402
X3.11Y-1.89
X3.11Y-1.9884
X3.14Y-4.54
X3.14Y-4.6384
X3.1575Y-2.1457
X3.1575Y-2.3425
X3.1816Y-1.62
X3.1898Y-2.4567
X3.1898Y-2.5866
X3.248Y-4.8071
X3.248Y-5.0039
X3.2724Y-5.1181
X3.2764Y-5.2402
X3.28Y-1.62
X3.3457Y-2.6772
X3.3583Y-1.8583
X3.3583Y-2.0551
X3.3614Y-2.1535
X3.3614Y-2.4535
X3.374Y-4.4646
X3.374Y-4.6614
X3.3811Y-4.752
X3.3811Y-5.052
X3.389Y-5.2795
X3.4016Y-2.5551
X3.4409Y-5.1575
X3.4614Y-2.1535
X3.4614Y-2.4535
X3.4756Y-1.9173
X3.4811Y-4.752
X3.4811Y-5.052
X3.49Y-1.51
X3.49Y-1.81
X3.5031Y-4.5197
X3.5079Y-2.0433
X3.5394Y-4.6417
X3.5614Y-2.1535
X3.5614Y-2.4535
X3.5811Y-4.752
X3.5811Y-5.052
X3.59Y-2.89
X3.59Y-3.19
X3.5984Y-2.5551
X3.6378Y-5.1575
X3.6457Y-2.6772
X3.6614Y-2.1535
X3.6614Y-2.4535
X3.67Y-1.7
X3.6811Y-4.752
X3.6811Y-5.052
X3.689Y-5.2795
X3.7047Y-2.0433
X3.71Y-2.89
X3.71Y-3.19
X3.7362Y-4.6417
X3.7756Y-1.9173
X3.8031Y-2.4567
X3.8031Y-2.6535
X3.8031Y-4.5197
X3.8031Y-5.063
X3.8031Y-5.2598
X3.86Y-4.65
X3.8858Y-1.7972
X3.8858Y-1.9941
X3.9232Y-4.3346
X3.9232Y-4.5315
X3.93Y-4.22
X3.97Y-1.7
X4.03Y-2.5116
X4.03Y-2.61
X4.03Y-5.15
X4.03Y-5.2484
X4.05Y-4.79
X4.07Y-1.8
X4.07Y-1.9969
X4.1Y-4.33
X4.1Y-4.5269
X4.16Y-4.65
X4.23Y-4.22
X4.24Y-2.4
X4.25Y-1.8
X4.25Y-1.9969
X4.26Y-4.65
X4.29Y-4.33
X4.29Y-4.5269
X4.35Y-4.79
X4.36Y-2.12
X4.43Y-1.8
X4.43Y-1.9969
X4.44Y-4.98
X4.44Y-5.0784
X4.48Y-4.33
X4.48Y-4.5269
X4.53Y-2.25
X4.54Y-2.4
X4.56Y-4.65
X4.6Y-1.8
X4.6Y-1.9969
X4.63Y-2.4
X4.64Y-4.33
X4.64Y-4.5269
X4.65Y-4.75
X4.65Y-4.88
X4.66Y-2.12
X4.69Y-3.49
X4.69Y-3.79
X4.78Y-5.05
X4.78Y-5.1484
X4.81Y-3.49
X4.81Y-3.79
X4.83Y-2.25
X4.8937Y-1.8071
X4.8937Y-2.1071
X4.93Y-2.4
X4.95Y-4.75
X4.95Y-4.88
X5.15Y-3.44
X5.17Y-3.
X5.17Y-3.3
X5.29Y-2.93
X5.45Y-3.44
X5.45Y-4.47
X5.46Y-3.11
X5.46Y-3.2084
X5.48Y-2.8
X5.56Y-3.39
X5.56Y-3.69
X5.58Y-4.03
X5.58Y-4.33
X5.68Y-3.39
X5.68Y-3.69
X5.75Y-3.07
X5.75Y-3.17
X5.75Y-3.27
X5.75Y-4.47
X5.78Y-2.8
X5.79Y-2.93
X5.8Y-3.81
X5.8Y-3.91
X5.8Y-4.01
X5.81Y-3.39
X5.81Y-3.69
X5.82Y-4.1916
X5.82Y-4.29
T2
X4.7795Y-1.6339
X4.8795Y-1.6339
T3
X2.23Y-2.83
X2.42Y-2.83
X2.7283Y-1.9252
X2.7323Y-4.5787
X2.7756Y-2.4748
X2.7756Y-2.5748
X2.8283Y-1.9252
X2.8323Y-4.5787
X2.8583Y-5.1244
X2.8583Y-5.2244
X3.66Y-1.54
X3.76Y-1.54
X4.08Y-3.67
X4.18Y-2.97
X4.18Y-3.67
X4.28Y-2.97
X4.28Y-3.67
X4.38Y-2.97
X4.45Y-5.27
X4.55Y-5.27
X4.85Y-2.73
X4.95Y-2.73
X5.05Y-2.73
T4
X2.6869Y-2.9217
X2.6869Y-3.2217
X2.6869Y-3.4728
X2.6869Y-3.7728
X2.8345Y-2.9217
X2.8345Y-3.2217
X2.8443Y-3.4728
X2.8443Y-3.7728
X3.05Y-3.47
X3.05Y-3.77
X3.13Y-4.01
X3.13Y-4.15
X3.43Y-4.01
X3.43Y-4.15
X4.7598Y-1.7984
X4.7598Y-2.0984
X5.03Y-3.04
X5.03Y-3.34
X5.0945Y-1.752
X5.0945Y-1.952
X5.0945Y-2.152
X5.0945Y-2.452
X5.3937Y-1.752
X5.3937Y-1.952
X5.3937Y-2.152
X5.3937Y-2.452
T5
X3.0931Y-3.07
X3.29Y-3.07
X3.32Y-3.67
X3.5169Y-3.67
X5.07Y-4.2631
X5.07Y-4.46
X5.18Y-3.69
X5.18Y-3.8869
T6
X2.3898Y-4.7717
X2.3898Y-4.9717
X2.4016Y-2.252
X2.4016Y-2.452
X2.44Y-3.28
X2.44Y-3.48
X2.44Y-3.68
X5.6299Y-2.2508
X5.6299Y-2.4508
X5.6398Y-1.7783
X5.6398Y-1.9783
T0
M30
